/* XPM */
static char *_6x16[] = {
/* columns rows colors chars-per-pixel */
"16 16 3 1 ",
"  c None",
". c #16A085",
"X c #16A185",
/* pixels */
".......... .....",
".......... .....",
".......... .....",
".......... .....",
".......... .....",
".....      .....",
"..... .... .....",
"..... .... .....",
"..... .... .....",
"..... .... .....",
"..... .... .....",
"..... .... .....",
"..... .... .....",
"..... .... .....",
"..... .... .....",
"..... .... ....."
};
