/* XPM */
static char *_2x22[] = {
/* columns rows colors chars-per-pixel */
"22 22 3 1 ",
"  c None",
". c #179F85",
"X c #16A085",
/* pixels */
"XXXXXXXXXXXXXX  XXXXXX",
"XXXXXXXXXXXXXX  XXXXXX",
"XXXXXXXXXXXXXX  XXXXXX",
"XXXXXXXXXXXXXX  XXXXXX",
"XXXXXXXXXXXXXX  XXXXXX",
"XXXXXXXXXXXXXX  XXXXXX",
"XXXXXX.         XXXXXX",
"XXXXXX          XXXXXX",
"XXXXXX  XXXXXX  XXXXXX",
"XXXXXX  XXXXXX  XXXXXX",
"XXXXXX  XXXXXX  XXXXXX",
"XXXXXX  XXXXXX  XXXXXX",
"XXXXXX  XXXXXX  XXXXXX",
"XXXXXX  XXXXXX  XXXXXX",
"XXXXXX  XXXXXX  XXXXXX",
"XXXXXX  XXXXXX  XXXXXX",
"XXXXXX  XXXXXX  XXXXXX",
"XXXXXX  XXXXXX  XXXXXX",
"XXXXXX  XXXXXX  XXXXXX",
"XXXXXX  XXXXXX  XXXXXX",
"XXXXXX  XXXXXX  XXXXXX",
"XXXXXX  XXXXXX  XXXXXX"
};
