/* XPM */
static char *_2xgermany_flag[] = {
/* columns rows colors chars-per-pixel */
"22 22 12 1 ",
"  c None",
". c #2A2F38",
"X c #2C2F38",
"o c #91362F",
"O c #BC382C",
"+ c #C03A2B",
"@ c #C15D27",
"# c #E2BA1B",
"$ c #C7A520",
"% c #F0C419",
"& c #F1C519",
"* c #F1C619",
/* pixels */
"                      ",
"                      ",
"                      ",
" XXXXXXXXXXXXXXXXXXXX ",
"XXXXXXXXXXXXXXXXXXXXXX",
"XXXXXX.XXXXXXXXXXXXXXX",
"XXXXXXXXXXXXXXXXXXXXXX",
"...............X.....X",
"oooooooooooooooooooooo",
"+++++O++++++++++++++++",
"++++++++++++++++++++++",
"++++++++++++++++++++++",
"OOOOOOOOOOOOOOOOOOOOOO",
"@@@@@@@@@@@@@@@@@@@@@@",
"**********************",
"%%%*%%%%%%%%%%%*%%%%%*",
"*%%%%%%%*%%%%%*%%%*%%*",
"#%**%*%%&&*%&&&&%*&&%#",
" $$$$$$$$$$$$$$$$$$$$ ",
"                      ",
"                      ",
"                      "
};
