/* XPM */
static char *_2xrussia_flag[] = {
/* columns rows colors chars-per-pixel */
"22 22 11 1 ",
"  c None",
". c #6E296C",
"X c #D80027",
"o c #DA0026",
"O c #0B4EAD",
"+ c #0051B4",
"@ c #0052B4",
"# c #0C5AB7",
"$ c #7AA3D3",
"% c gray94",
"& c #F2F2F1",
/* pixels */
"                      ",
"                      ",
"                      ",
"                      ",
"%%%%%%%%%%%%%%%%%%%%%%",
"%%%%%%%%%%%%%%%%%%%%%%",
"%%%%%%%%%%%%%%%%%%%%%%",
"%%&&&&&&&&&&&&&&&&&&%%",
"$$$$$$$$$$$$$$$$$$$$$$",
"######################",
"++++++@@@@@+++++@@@@++",
"@@@@@@@@@@@@@@@@@@@@@@",
"OOOOOOOOOOOOOOOOOOOOOO",
"......................",
"oooooooooooooooooooooo",
"XXXoXXXXXXXXXXXoXXXXXX",
"XXXXXXXXXXXXXXXXXXXXXX",
"XXXoXXXXXXXXXXXXXXXXXX",
"                      ",
"                      ",
"                      ",
"                      "
};
