/* XPM */
static char *_2xus_flag[] = {
/* columns rows colors chars-per-pixel */
"22 22 69 1 ",
"  c None",
". c #D7001B",
"X c #CB0025",
"o c #D70021",
"O c #D80023",
"+ c #D90E33",
"@ c #CE133C",
"# c #DC2B4B",
"$ c #D02D52",
"% c #E04F69",
"& c #3D4EA9",
"* c #3F52AB",
"= c #2E52B2",
"- c #3154B3",
"; c #3155B3",
": c #3255B3",
"> c #3356B4",
", c #3457B4",
"< c #3558B4",
"1 c #3759B5",
"2 c #3F58B1",
"3 c #385AB6",
"4 c #395BB6",
"5 c #3A5CB6",
"6 c #3B5DB6",
"7 c #3C5EB6",
"8 c #3C5EB7",
"9 c #3E5FB7",
"0 c #3F60B7",
"q c #4054AD",
"w c #405CB3",
"e c #4061B7",
"r c #4060B8",
"t c #4162B8",
"y c #4364B8",
"u c #4665BA",
"i c #4666BA",
"p c #4867BA",
"a c #4A69BB",
"s c #4B6ABB",
"d c #4F6DBC",
"f c #4F6DBD",
"g c #526FBD",
"h c #5571BE",
"j c #5572BF",
"k c #5874BF",
"l c #5D78C1",
"z c #5F7AC2",
"x c #617CC2",
"c c #D7758E",
"v c #E4788B",
"b c #E4788C",
"n c #6881C4",
"m c #6E86C6",
"M c #DB9BAE",
"N c #E8A1AE",
"B c #8097CE",
"V c #879CD0",
"C c #E8C2CB",
"Z c #EBC5CC",
"A c #ECC5CC",
"S c #E7DDE3",
"D c #EFE2E4",
"F c #E3E9EF",
"G c #E3ECF2",
"H c #F0F5F4",
"J c #F1F5F4",
"K c #F1F8F6",
"L c #F1FEFC",
/* pixels */
"                      ",
"                      ",
"                      ",
"                      ",
"=;;;,=>->;8GKKKKKKKKKK",
">jful3xufj2cbbbbbbbbbb",
";aurg<grua&X..........",
",ljan6nsjlwMNNNNNNNNNN",
";ee6p,p6errGJJJJHHHHHH",
",xkgm3mflxq$##########",
",e83e3e66yq@++++++++++",
"BBBBBBBBmVVSDDDDDDDDDD",
"CCCCCCCCCCCAAAAAAAAAAA",
"OOOOOOOOOOOOOOOOOOOOOO",
"%%%%%%%%%%%%%%%%%%%%%%",
"LLLLLLLLLLLLLLLLLLLLLL",
"vvbbbvvvvvvvvvvbbbbbbb",
"O..OOOO.oOoooooooooooo",
"                      ",
"                      ",
"                      ",
"                      "
};
