/* XPM */
static char *_4x24[] = {
/* columns rows colors chars-per-pixel */
"24 24 3 1 ",
"  c None",
". c #15A084",
"X c #16A085",
/* pixels */
"XXXXXXXXXXXXXXXX XXXXXXX",
"XXXXXXXXXXXXXXX. XXXXXXX",
"XXXXXXXXXXXXXXX. XXXXXXX",
"XXXXXXXXXXXXXXX. XXXXXXX",
"XXXXXXXXXXXXXXX. XXXXXXX",
"XXXXXXXXXXXXXXX. XXXXXXX",
"XXXXXXXXXXXXXXX. XXXXXXX",
"XXXXXXX          XXXXXXX",
"XXXXXXX  X.....  XXXXXXX",
"XXXXXXX .XXXXXXX XXXXXXX",
"XXXXXXX .XXXXXX. XXXXXXX",
"XXXXXXX .XXXXXX. XXXXXXX",
"XXXXXXX .XXXXXX. XXXXXXX",
"XXXXXXX .XXXXXX. XXXXXXX",
"XXXXXXX .XXXXXX. XXXXXXX",
"XXXXXXX .XXXXXX. XXXXXXX",
"XXXXXXX .XXXXXX. XXXXXXX",
"XXXXXXX .XXXXXX. XXXXXXX",
"XXXXXXX .XXXXXX. XXXXXXX",
"XXXXXXX .XXXXXX. XXXXXXX",
"XXXXXXX .XXXXXX. XXXXXXX",
"XXXXXXX .XXXXXX. XXXXXXX",
"XXXXXXX .XXXXXX. XXXXXXX",
"XXXXXXX .XXXXXXX XXXXXXX"
};
