/* XPM */
static char *layout_columns[] = {
/* columns rows colors chars-per-pixel */
"18 18 2 1 ",
"  c #b3b3b3",
". c None",
/* pixels */
"                  ",
"                  ",
"  ......  ......  ",
"  ......  ......  ",
"  ......  ......  ",
"  ......  ......  ",
"  ......  ......  ",
"  ......  ......  ",
"  ......  ......  ",
"  ......  ......  ",
"  ......  ......  ",
"  ......  ......  ",
"  ......  ......  ",
"  ......  ......  ",
"  ......  ......  ",
"  ......  ......  ",
"                  ",
"                  "
};
