/* XPM */
static char *layout_max[] = {
/* columns rows colors chars-per-pixel */
"18 18 2 1 ",
"  c #b3b3b3",
". c None",
/* pixels */
"                  ",
"                  ",
"  ......  ......  ",
"  ..... .. .....  ",
"  ..............  ",
"  ..............  ",
"  ..............  ",
"  . .......... .  ",
"   ............   ",
"   ............   ",
"  . .......... .  ",
"  ..............  ",
"  ..............  ",
"  ..............  ",
"  ..... .. .....  ",
"  ......  ......  ",
"                  ",
"                  "
};
