/* XPM */
static char *united_states[] = {
/* columns rows colors chars-per-pixel */
"16 16 60 1 ",
"  c None",
". c #BF607B",
"X c #DC4755",
"o c #E0525F",
"O c #DF5460",
"+ c #E25965",
"@ c #E15966",
"# c #E5646E",
"$ c #55579D",
"% c #55579E",
"& c #56579E",
"* c #795089",
"= c #785992",
"- c #795A92",
"; c #7B5C94",
": c #7C5E95",
"> c #5156A0",
", c #5759A0",
"< c #555AA3",
"1 c #6166A9",
"2 c #686CAD",
"3 c #6B6FAE",
"4 c #6E72AF",
"5 c #6D72B0",
"6 c #6E72B0",
"7 c #6F73B0",
"8 c #6F73B1",
"9 c #7074B0",
"0 c #7074B1",
"q c #7276B1",
"w c #7175B2",
"e c #7276B2",
"r c #7276B3",
"t c #7377B3",
"y c #7478B3",
"u c #7579B4",
"i c #787BB6",
"p c #7A7DB5",
"a c #797DB6",
"s c #7A7DB7",
"d c #7A7EB6",
"f c #7C7FB8",
"g c #7C80B7",
"h c #C5A7BF",
"j c #CFA5B9",
"k c #C5A8C0",
"l c #C6B2C9",
"z c #E6BDC4",
"x c #E6C5CA",
"c c #EDC2C9",
"v c #EEC6CC",
"b c #EEC8CE",
"n c #EECBD1",
"m c #EECCD1",
"M c #EED1D6",
"N c #EFD2D7",
"B c #EFDADE",
"V c #F0D5DA",
"C c #F0D6DB",
"Z c #F0DBE0",
/* pixels */
"                ",
"                ",
"                ",
"<17<37>8.#######",
"$fywgi77kvvvvvvn",
"$p4yfw77lVVVVVVB",
"$pwwpu73.#######",
"$p4uprw7knmmmmmN",
"*::=::=:jmmmmmmM",
"+###############",
"xNCCCCCCVCCCCCCZ",
"zccccccccccccccb",
"XO++++++++++++++",
"                ",
"                ",
"                "
};
