/* XPM */
static char *window_close[] = {
/* columns rows colors chars-per-pixel */
"22 22 94 2 ",
"   c None",
".  c #484A47",
"X  c #4F524D",
"o  c #50524D",
"O  c #50534F",
"+  c #535450",
"@  c #545551",
"#  c #545652",
"$  c #555652",
"%  c #565753",
"&  c #555754",
"*  c #555854",
"=  c #565854",
"-  c #565954",
";  c #565955",
":  c #575955",
">  c #575A55",
",  c #575956",
"<  c #585954",
"1  c #585A54",
"2  c #585A55",
"3  c #585956",
"4  c #585A56",
"5  c #595A56",
"6  c #585A57",
"7  c #7E817D",
"8  c #80827D",
"9  c #81837E",
"0  c #828380",
"q  c #828480",
"w  c #838480",
"e  c #858683",
"r  c #868784",
"t  c #868885",
"y  c #878985",
"u  c #878986",
"i  c #888985",
"p  c #888A86",
"a  c #898A86",
"s  c #898B86",
"d  c #898A87",
"f  c #898B87",
"g  c #898B88",
"h  c #8A8B88",
"j  c #8B8D88",
"k  c #8B8C89",
"l  c #8E908B",
"z  c #8E908D",
"x  c #8F918D",
"c  c #90918D",
"v  c #90928D",
"b  c #90928E",
"n  c #91928E",
"m  c #91928F",
"M  c #91938F",
"N  c #919390",
"B  c #929490",
"V  c #949691",
"C  c #959692",
"Z  c #959792",
"A  c #969893",
"S  c #979994",
"D  c #989A95",
"F  c #9A9B97",
"G  c #9A9C97",
"H  c #9D9F9A",
"J  c #A5A7A2",
"K  c #A6A7A4",
"L  c #A6A8A4",
"P  c #A7A9A5",
"I  c #A7A9A6",
"U  c #A8A9A6",
"Y  c #A8AAA6",
"T  c #A9AAA7",
"R  c #A9ABA7",
"E  c #AAABA7",
"W  c #AAACA8",
"Q  c #ABACA8",
"!  c #ABADA9",
"~  c #ACADAA",
"^  c #ACAEAA",
"/  c #ADAEAB",
"(  c #ADAFAB",
")  c #AEAFAB",
"_  c #AEB0AC",
"`  c #AFB0AD",
"'  c #AFB1AD",
"]  c #B0B1AE",
"[  c #B0B2AE",
"{  c #B1B2AE",
"}  c #B1B3AF",
"|  c #B2B4B0",
" . c #B3B4B1",
".. c #B4B5B1",
/* pixels */
"                                            ",
"                                            ",
"                                            ",
"        5 : :                 : : 5         ",
"      5 q P q :             : 9 P 0 5       ",
"      5 J C W p 5         : t W S P :       ",
"      5 9 W v W g 5     5 t ` B W q :       ",
"        : p ~ C ` k : 5 k } A ` j :         ",
"          : t } S | v N ..F } t :           ",
"            5 p } G _ ` H ..g 5             ",
"              5 x W D G ) v 5               ",
"              : x E S S ~ v 5               ",
"            5 k ` A E E D ` g 5             ",
"          : p W B ) x x } C ~ g 5           ",
"        : t E l W p 5 5 p ~ B W t 5         ",
"      : 9 L j E p 5     < t ~ l E 0 :       ",
"      : K v P t :         # r E B E =       ",
"      + 9 K q #             # 7 J e #       ",
"        o : .                 o & +         ",
"                                            ",
"                                            ",
"                                            "
};
